<?xml version="1.0" encoding="UTF-8"?>
<svg id="Layer_2" data-name="Layer 2" xmlns="http://www.w3.org/2000/svg" viewBox="0 0 184.6 193">
  <defs>
    <style>
      .cls-1 {
        fill: #ffd2c8;
      }

      .cls-1, .cls-2, .cls-3, .cls-4, .cls-5, .cls-6, .cls-7, .cls-8, .cls-9, .cls-10 {
        stroke-width: 0px;
      }

      .cls-11 {
        fill: none;
        stroke: #774900;
        stroke-linecap: round;
        stroke-width: 1.1px;
      }

      .cls-12, .cls-2 {
        fill: #f9b56e;
      }

      .cls-12, .cls-13 {
        stroke: #d89535;
        stroke-miterlimit: 10;
        stroke-width: 2.2px;
      }

      .cls-3 {
        fill: #2c1505;
      }

      .cls-4 {
        fill: #ffa25e;
      }

      .cls-5 {
        fill: #000;
      }

      .cls-6 {
        fill: #0ebcf3;
      }

      .cls-13 {
        fill: #f7c72d;
      }

      .cls-7 {
        fill: #ffbdb5;
      }

      .cls-8 {
        fill: #ffefde;
      }

      .cls-9 {
        fill: #f8ea48;
      }

      .cls-10 {
        fill: #fff;
      }
    </style>
  </defs>
  <g id="Ruddy">
    <g>
      <ellipse class="cls-6" cx="92.3" cy="169.8" rx="92.3" ry="23.2"/>
      <path class="cls-7" d="M97.5,2.5c.2,0,.2-.3.4-.3l23.6,3.1c2.8.4,4.8,3,4.5,5.8,1.8-.3,3.6-.5,5.4-.5,7.5,0,14.5,2.3,20.1,6.6,8.4,6.3,13.9,16.4,13.9,27.6v5.4h7.1c4.9,0,9.8,4,9.8,8.9s-4.9,8.9-9.8,8.9h-7.1v57.7c0,2.1,0,4.1-.4,6.1-4,29.5-36.4,49.4-76.2,49.4s-17.8-1.2-25.8-3.5c-17.7-9-30.5-23.4-34.1-40.2,0-.4,0-.7,0-1.1,0,.4,0,.7,0,1.1,3.6,16.9,16.3,31.3,34.1,40.2-25.9-7.2-45.1-24.7-49.7-46.1-.6-2.6,1-5.1,3.1-5.6-2-1.3-3.3-3.6-4.4-5.7-4.8-8.6-12.7-23.3-8.5-28.1,1-1.2,2-1.7,3.4-1.7,5.5,0,14,7.4,24.9,10.1.8.2,2.1.4,3.6.4,12.3,0,44.6-6.4,57.8-7.5,1.5,0,3.1,0,4.5.2v-48.8c0-8,3.4-15.6,7.9-21.4l-12.8,1h-.3c-2.2,0-4.7-2-4.8-4.8-.2-2.9,1.9-5.4,4.8-5.6l10.3-.7-6.2-1c-2.9-.4-4.2-3-3.9-5.9.3-2.6,2.2-4.1,4.7-4.1M97.3,0c-3.6,0-6.6,2.7-7.1,6.3-.3,2.1.4,4.2,1.7,5.7-3.8.4-6.6,3.8-6.4,7.7.2,3.8,3.4,6.8,7.1,6.8s.3,0,.5,0l7.6-.5c-3.5,5.7-5.3,12.2-5.3,19v46.4h-2.5c-5.4.5-14.2,1.8-23.4,3.3-12.8,2-27.2,4.3-34.2,4.2-7,0-2.6,0-3-.2-5.3-1.3-10.1-3.9-14.4-6.1-4.3-2.3-7.9-4.3-11.1-4.3s-3.8.8-5.1,2.4c-3.8,4.4-1.2,14.9,7.8,31.1.8,1.5,2,2.9,3.2,4.1-1.4,1.6-2,3.9-1.6,6.2,4.7,22.1,24.4,40.3,51.4,47.8,8.5,2.3,17.3,3.5,26.3,3.5,19.8,0,38.5-5,52.6-14,14-8.9,22.9-21.5,25.3-35.4l.2-1.7c.3-2.1.4-4.3.4-6.4v-55.3h5.1c8.2,0,12.2-5.3,12.2-11.3s-4.6-11.2-12.2-11.2h-5.1v-3.1c0-11.4-5.4-22.4-14.6-29.2-6.2-4.7-13.7-7.2-21.4-7.2s-2.5,0-3.7.2c-.7-2.8-3.1-5.1-6-5.5l-23.3-3.3h-1Z"/>
      <path class="cls-8" d="M108.3,130.7l-3.6-80.8c0-18.9,18.2-34.7,36.9-34.7s7.2,1.2,10.2,2.1c8.4,6.3,13.9,16.4,13.9,27.6v80.4c0,18.9-15.3,34.3-34.1,34.3s-6.4-.5-9.5-1.4c-8.4-6.3-13.9-16.4-13.9-27.6Z"/>
      <path class="cls-1" d="M131.6,10.6c7.5,0,14.6,2.5,20.2,6.8-2.8-1.3-6.2-1.4-9.5-1.4-18.7,0-34.1,15.5-34.1,34.3v80.4c0,11.3,5.4,21.4,13.9,27.6-14.2-4.2-24.5-17.4-24.5-33V44.9c0-18.9,15.3-34.3,34.1-34.3Z"/>
      <path class="cls-13" d="M150.8,68.3h22.1c4.9,0,8.8-4,8.8-8.9s-4-9-8.8-9h-22.1c-4.9,0-8.8,4-8.8,8.9s4,9,8.8,9Z"/>
      <path class="cls-9" d="M151.1,62.9h11.7c2.7,0,4.9-2.2,4.9-4.9v-.6c0-2.7-2.2-4.9-4.9-4.9h-11.7c-2.7,0-4.9,2.2-4.9,4.9v.6c0,2.7,2.2,4.9,4.9,4.9Z"/>
      <path class="cls-5" d="M126.3,48.8c5.4,0,9.8-4.4,9.8-9.9s-4.4-9.9-9.8-9.9-9.8,4.4-9.8,9.9,4.4,9.9,9.8,9.9Z"/>
      <path class="cls-1" d="M96.8,12.6l23.5,3.1c2.9.4,5.5-1.6,5.8-4.5.4-2.9-1.7-5.5-4.6-5.9l-23.5-3.1c-2.9-.4-5.5,1.6-5.8,4.5-.4,2.9,1.7,5.5,4.6,5.9Z"/>
      <path class="cls-1" d="M93.1,24.5l23.7-1.5c2.9-.2,5-2.7,4.9-5.6-.2-2.9-2.7-5.1-5.5-4.9l-23.7,1.5c-2.9.2-5,2.7-4.9,5.6.2,2.9,2.7,5.1,5.5,4.9Z"/>
      <path class="cls-10" d="M128.5,46.4c2.9,0,5.2-2.4,5.2-5.3s-2.4-5.3-5.2-5.3-5.2,2.4-5.2,5.3,2.4,5.3,5.2,5.3Z"/>
      <path class="cls-3" d="M74.7,125.8h90.6c0,2.1,0,4.1-.2,6.1h-80.7c-1.6,0-2.7,2.8-2.4,5.7,2.2,16.8,10,31.3,20.8,40.1-15.8-7.2-27.7-24.8-30.5-46.2-.4-2.9.8-5.7,2.4-5.7Z"/>
      <path class="cls-2" d="M26.1,135.4c-.6-2.9,1.3-5.7,3.9-5.7l135.4,2.3c-4,29.5-36.4,49.4-76.2,49.4s-17.8-1.2-25.8-3.5c-17.7-9-33.8-25.6-37.2-42.5Z"/>
      <path class="cls-4" d="M17.1,125.9h148.6c0,2.1,0,4.1-.4,6.1H33.1c-2.6,0-4.5,2.8-3.9,5.7,3.6,16.9,16.3,31.3,34.1,40.2-25.9-7.2-45.4-24.9-50-46.3-.6-2.9,1.3-5.7,3.9-5.7Z"/>
      <path class="cls-4" d="M3.5,91.8c5-5.9,14.7,5.3,28.6,8.7,7.7,1.9,46.5-5.9,61.3-7.2,12,0,23.5,3.7,29.9,12.3-6.1-3.4-13.7-4.9-21.3-4.9-14.7,1.3-53.6,9.1-61.3,7.2-13.9-3.4-23.6-14.6-28.6-8.7-4.1,4.8,3,19.7,7.7,28.3-3.5-1.1-6.5-3.5-8.3-6.8-4.8-8.6-12.2-24-8-28.8h0Z"/>
      <path class="cls-12" d="M12.1,99.2c5-5.9,14.7,5.3,28.6,8.7,7.6,1.9,46.2-5.9,61.1-7.2h.3c7.3,0,13.3.4,19.2,3.6.5.2,2.1,1.6,2.4,2,3.1,4.4,4.9,10.1,4.9,17.1s-.3,2.8-.8,4.4c-1.7,6.8-7.8,13.1-16.2,15.7-2.9.9-5.6,1.2-8.4,1.2l-1.1-.2c-1.2,0-2.5-.3-3.6-.5l-77.2-16.1c-.9-.2-1.6-.7-2.1-1.5-4.7-8.8-11.1-22.6-7.1-27.1Z"/>
      <path class="cls-11" d="M137.6,49.9c-4,5.5-4.9,6.8-13.9,5.5"/>
      <path class="cls-11" d="M133,50.5c2.1,1.3,2.6,1.6,3.1,5.8"/>
      <path class="cls-11" d="M130.2,52.5c1.8,1.7,2.3,2.1,2.1,6.4"/>
      <path class="cls-11" d="M126.8,53c1.1,2.4,1.4,3-.1,6.8"/>
    </g>
  </g>
</svg>