<?xml version="1.0" encoding="UTF-8"?>
<svg id="Layer_2" data-name="Layer 2" xmlns="http://www.w3.org/2000/svg" viewBox="0 0 184.6 192.4">
  <defs>
    <style>
      .cls-1 {
        fill: #2f7541;
      }

      .cls-1, .cls-2, .cls-3, .cls-4, .cls-5, .cls-6, .cls-7, .cls-8, .cls-9 {
        stroke-width: 0px;
      }

      .cls-2 {
        fill: #54400a;
      }

      .cls-3 {
        fill: #000;
      }

      .cls-4 {
        fill: #54300a;
      }

      .cls-10 {
        fill: #f7c72d;
        stroke: #fff;
        stroke-miterlimit: 10;
      }

      .cls-5 {
        fill: #0ebcf3;
      }

      .cls-6 {
        fill: #f8ea48;
      }

      .cls-7 {
        fill: #006837;
      }

      .cls-8 {
        fill: #fff;
      }

      .cls-9 {
        fill: #262222;
      }
    </style>
  </defs>
  <g id="Mduck">
    <g>
      <g>
        <ellipse class="cls-5" cx="92.3" cy="169.2" rx="92.3" ry="23.2"/>
        <g>
          <path class="cls-7" d="M107.2,128.9l-1.5-80.6c0-18.9,16.7-35.6,35.6-35.6h0c3.3,0,6.9,1.6,9.9,2.5,8.5,6.3,14,16.4,14,27.7v80.6c0,18.9-15.5,34.4-34.4,34.4h0c-3.3,0-6.5-.5-9.6-1.4-8.5-6.3-14-16.4-14-27.7Z"/>
          <path class="cls-1" d="M130.8,8.5h0c7.6,0,14.7,2.5,20.4,6.8-3-.9-6.3-1.4-9.6-1.4h0c-18.9,0-34.4,15.5-34.4,34.4v80.6c0,11.3,5.5,21.4,14,27.7-14.3-4.2-24.8-17.4-24.8-33.1V42.9c0-18.9,15.5-34.4,34.4-34.4Z"/>
        </g>
        <rect class="cls-10" x="141.3" y="48.3" width="40.1" height="17.9" rx="8.9" ry="8.9" transform="translate(322.7 114.6) rotate(180)"/>
        <rect class="cls-6" x="144.5" y="49.6" width="21.6" height="10.4" rx="4.9" ry="4.9" transform="translate(310.7 109.5) rotate(-180)"/>
        <circle class="cls-3" cx="125.3" cy="36.9" r="9.9"/>
      </g>
      <rect class="cls-1" x="90.9" y="1.6" width="34.5" height="10.5" rx="5.3" ry="5.3" transform="translate(214.5 27.7) rotate(-172.5)"/>
      <rect class="cls-1" x="86.2" y="11.2" width="34.5" height="10.5" rx="5.3" ry="5.3" transform="translate(207.8 26.3) rotate(176.4)"/>
      <circle class="cls-8" cx="127.6" cy="39.1" r="5.3"/>
      <g>
        <path class="cls-3" d="M25.6,135.3c-.6-2.9,3.2-6.1,5.8-6.1l133.4.9c-4,29.6-36.8,49.5-77,49.5-9.2,0-18-1.2-26.1-3.5-17.9-9-32.5-24-36.1-40.9Z"/>
        <path class="cls-9" d="M15.1,124h150.1c0,2.1-.1,4.1-.4,6.1H31.2c-2.6,0-4.5,2.8-3.9,5.7,3.6,16.9,16.5,31.4,34.4,40.3-26.2-7.2-45.9-24.9-50.5-46.4-.6-2.9,1.3-5.7,3.9-5.7Z"/>
      </g>
      <g>
        <path class="cls-4" d="M7.1,96.3c5.1-5.9,19.1,4.9,33,8.3,7.8,1.9,45.4-5.7,60.2-7,7.8,0,15.7,2.8,21.8,6.2,3.4,4.5,5.4,10.4,5.4,17.8,0,1.4-.3,3-.8,4.4-1.7,6.8-7.9,13.1-16.4,15.7-2.9.9-5.7,1.2-8.5,1.2,0,0,0,.1,0,0l-1.1-.2c-1.2,0-2.5-.3-3.6-.5l-78-16.1c-.5-.1-1-.2-1.4-.4-4.8-8.7-14.7-24.6-10.6-29.4Z"/>
        <path class="cls-2" d="M1.2,89.9c5.1-5.9,14.9,5.3,28.9,8.7,7.8,1.9,47-5.9,61.9-7.2,12.1,0,23.7,3.7,30.2,12.3-6.2-3.4-13.8-4.9-21.5-4.9-14.9,1.3-54.1,9.1-61.9,7.2-14-3.4-23.8-14.6-28.9-8.7-4.1,4.8,3,19.7,7.8,28.4-3.5-1.1-6.6-3.5-8.4-6.8-4.8-8.6-12.3-24-8.1-28.9Z"/>
      </g>
    </g>
  </g>
</svg>