<?xml version="1.0" encoding="UTF-8"?>
<svg id="Layer_2" data-name="Layer 2" xmlns="http://www.w3.org/2000/svg" viewBox="0 0 269.04 282.74">
  <defs>
    <style>
      .cls-1 {
        fill: #fff;
        stroke-width: 0px;
      }
    </style>
  </defs>
  <g id="Layer_1-2" data-name="Layer 1">
    <path class="cls-1" d="m131.64,68.66c48.8,0,88.5,39.7,88.5,88.5s-39.7,88.5-88.5,88.5-88.5-39.7-88.5-88.5,39.7-88.5,88.5-88.5m0-19c-59.37,0-107.5,48.13-107.5,107.5s48.13,107.5,107.5,107.5,107.5-48.13,107.5-107.5-48.13-107.5-107.5-107.5h0Z"/>
    <g>
      <rect class="cls-1" x="120.89" y="75.66" width="18.5" height="76.64" rx="9.25" ry="9.25"/>
      <path class="cls-1" d="m130.14,75.66c-5.11,0-9.25,4.14-9.25,9.25v58.14c0,5.11,4.14,9.25,9.25,9.25s9.25-4.14,9.25-9.25v-58.14c0-5.11-4.14-9.25-9.25-9.25h0Z"/>
    </g>
    <path class="cls-1" d="m268.3,46.75c-.12-.59-.25-1.19-.4-1.78-.59-2.36-1.4-4.66-2.44-6.87-.26-.55-.53-1.1-.82-1.64-2.58-4.88-6.26-9.27-11-12.77l-22.02-16.27c-.48-.36-.97-.7-1.46-1.03-.15-.1-.31-.2-.47-.3-.35-.22-.7-.44-1.05-.66-.18-.11-.35-.21-.53-.31-.35-.2-.7-.4-1.06-.59-.16-.09-.33-.18-.49-.26-.47-.25-.95-.48-1.43-.71-.04-.02-.08-.04-.12-.06-.53-.24-1.06-.47-1.59-.69-.15-.06-.31-.12-.46-.18-.38-.15-.77-.3-1.16-.43-.18-.07-.37-.13-.55-.19-.38-.13-.75-.25-1.13-.36-.17-.05-.35-.11-.52-.16-.47-.14-.94-.26-1.42-.38-.07-.02-.15-.04-.22-.06-.55-.13-1.1-.25-1.66-.36-.15-.03-.3-.05-.45-.08-.41-.07-.81-.14-1.22-.2-.19-.03-.38-.05-.57-.08-.38-.05-.77-.09-1.15-.13-.18-.02-.37-.04-.55-.05-.45-.04-.9-.07-1.35-.09-.11,0-.22-.01-.33-.02-.51-.02-1.03-.03-1.54-.03h0S209.14,0,209.14,0c0,0,0,0,0,0-.03,0-.07,0-.1,0-.67,0-1.35.02-2.02.06-.13,0-.27.02-.4.03-.54.04-1.08.08-1.61.14-.23.02-.45.06-.68.09-.45.06-.89.12-1.34.19-.24.04-.49.08-.73.13-.43.08-.87.17-1.3.26-.23.05-.47.1-.7.16-.48.11-.95.24-1.42.37-.18.05-.36.09-.53.15-.65.19-1.29.4-1.93.63-.08.03-.17.07-.25.1-.55.2-1.1.41-1.64.64-.2.09-.4.18-.61.27-.42.19-.84.38-1.26.58-.22.11-.44.22-.66.33-.4.2-.79.41-1.19.63-.21.12-.43.24-.64.36-.42.24-.83.5-1.24.76-.17.11-.34.21-.51.32-.58.38-1.14.77-1.7,1.18-.04.03-.09.07-.13.1-.51.38-1.01.77-1.5,1.17-.17.14-.34.29-.52.44-.36.31-.72.62-1.07.94-.19.18-.38.36-.57.54-.33.31-.65.64-.97.96-.18.19-.37.38-.54.57-.33.35-.65.72-.97,1.09-.15.17-.3.34-.45.52-.46.55-.9,1.11-1.33,1.69,0,0,0,0,0,0l-2.14,2.9-2.9,3.93c-.59.8-1.04,1.66-1.35,2.55-.31.89-.48,1.82-.52,2.74-.03.62,0,1.23.1,1.84.37,2.43,1.66,4.72,3.79,6.29l67.57,49.91c.24.18.5.34.75.5.08.05.16.09.24.14.18.1.36.2.54.29.09.05.19.09.28.13.18.08.37.16.56.23.09.03.17.07.26.1.25.08.5.16.75.22.02,0,.05.01.07.02.28.07.56.12.84.16.08.01.17.02.25.03.2.02.4.04.6.05.1,0,.2,0,.3.01.08,0,.16,0,.24,0,.07,0,.14-.01.21-.01.22,0,.44-.02.66-.04.13-.01.25-.02.38-.04.23-.03.47-.07.7-.12.1-.02.21-.04.31-.06.33-.08.66-.17.98-.29.03-.01.06-.02.09-.04.29-.11.58-.23.86-.36.1-.05.2-.11.3-.16.21-.11.41-.22.61-.34.11-.07.22-.14.32-.21.19-.13.37-.26.54-.4.1-.08.2-.16.3-.25.18-.16.36-.32.53-.5.08-.08.17-.16.24-.24.24-.26.48-.54.7-.83l5.04-6.83c3.5-4.74,5.73-10.02,6.76-15.44.23-1.21.4-2.42.51-3.63.05-.61.1-1.22.12-1.82.03-.61.04-1.22.03-1.82-.01-2.43-.26-4.85-.74-7.23Z"/>
    <path class="cls-1" d="m97.26,26.59c-.21-1.53-.8-3.04-1.79-4.37l-5.04-6.83s0,0,0,0c-.43-.58-.88-1.14-1.33-1.69-.15-.18-.3-.35-.45-.52-.32-.37-.64-.73-.97-1.09-.18-.19-.36-.38-.54-.57-.32-.33-.64-.65-.97-.96-.19-.18-.38-.36-.57-.54-.35-.32-.7-.63-1.06-.94-.17-.15-.34-.3-.52-.45-.49-.4-.99-.79-1.49-1.17-.05-.04-.09-.08-.14-.11-.56-.41-1.12-.8-1.7-1.17-.17-.11-.35-.22-.52-.33-.41-.26-.82-.51-1.23-.75-.21-.12-.43-.24-.65-.36-.39-.21-.78-.42-1.18-.62-.22-.11-.45-.23-.67-.33-.41-.2-.83-.39-1.25-.57-.21-.09-.41-.18-.62-.27-.53-.22-1.07-.43-1.61-.63-.09-.03-.19-.07-.28-.11-.64-.23-1.28-.43-1.93-.63-.18-.05-.37-.1-.55-.15-.47-.13-.93-.26-1.41-.37-.24-.06-.47-.11-.71-.16-.43-.09-.86-.18-1.28-.26-.25-.05-.5-.09-.74-.13-.44-.07-.88-.13-1.32-.19-.23-.03-.46-.06-.69-.09-.53-.06-1.07-.1-1.6-.14-.14,0-.27-.02-.41-.03-.67-.04-1.34-.06-2.02-.06-.03,0-.07,0-.1,0-.51,0-1.03.01-1.54.03-.11,0-.22.01-.34.02-.45.02-.89.05-1.34.09-.19.02-.37.04-.56.05-.38.04-.76.08-1.14.13-.19.03-.39.05-.58.08-.4.06-.8.13-1.2.2-.16.03-.31.05-.47.08-.55.11-1.1.22-1.65.35-.08.02-.16.04-.24.06-.47.12-.93.24-1.4.37-.18.05-.35.11-.53.16-.38.11-.75.23-1.12.36-.19.06-.37.13-.56.19-.38.14-.77.28-1.15.43-.16.06-.32.12-.47.18-.53.22-1.06.44-1.59.69-.04.02-.09.04-.13.06-.48.22-.95.46-1.42.7-.17.09-.33.18-.49.27-.35.19-.71.39-1.06.59-.18.1-.36.21-.53.32-.35.21-.7.43-1.05.66-.16.1-.31.2-.47.3-.49.33-.98.67-1.46,1.03L15.39,23.69c-2.08,1.53-3.95,3.24-5.62,5.09-1,1.1-1.91,2.25-2.76,3.45-.97,1.36-1.85,2.78-2.62,4.24-.29.54-.56,1.09-.82,1.64-1.03,2.22-1.85,4.52-2.44,6.87-.15.59-.28,1.18-.4,1.78C.26,49.13.02,51.55,0,53.98c0,.61,0,1.22.03,1.82.03.61.07,1.22.12,1.82.06.69.15,1.38.25,2.08.25,1.73.62,3.45,1.12,5.15.52,1.78,1.18,3.53,1.97,5.25.53,1.14,1.12,2.27,1.77,3.37.65,1.1,1.37,2.18,2.15,3.23l5.04,6.83c.22.3.45.57.7.83.08.08.16.16.24.24.17.17.35.34.53.5.1.09.2.17.3.25.18.14.36.27.54.4.11.07.21.15.32.21.2.12.4.24.61.35.1.05.2.11.3.16.28.14.57.26.86.36.03.01.06.02.09.04.32.11.65.21.98.29.1.02.21.04.31.06.23.05.46.09.7.12.12.02.25.03.37.04.22.02.44.03.66.04.07,0,.14.01.21.01.08,0,.16,0,.24,0,.1,0,.2,0,.3-.01.2-.01.4-.03.6-.05.08-.01.17-.02.25-.03.28-.04.56-.09.84-.16.02,0,.05-.01.07-.02.25-.06.5-.14.75-.22.09-.03.17-.06.26-.1.19-.07.37-.14.56-.23.09-.04.19-.08.28-.13.18-.09.37-.19.55-.29.08-.05.16-.09.24-.14.26-.15.51-.32.75-.5l67.57-49.91c2.93-2.17,4.28-5.68,3.8-9.06Z"/>
    <g>
      <rect class="cls-1" x="46.72" y="246.36" width="21.22" height="36.21" rx="8.5" ry="8.5" transform="translate(27.21 -4.46) rotate(5.84)"/>
      <path class="cls-1" d="m59.17,246.45h0c-5.83-.6-10.79,1.26-11.09,4.14l-2.62,25.58c-.3,2.88,4.19,5.71,10.02,6.3h0c5.83.6,10.79-1.26,11.09-4.14l2.62-25.58c.3-2.88-4.19-5.71-10.02-6.3h0Z"/>
    </g>
    <g>
      <rect class="cls-1" x="195.33" y="246.36" width="21.22" height="36.21" rx="8.5" ry="8.5" transform="translate(437.73 506.6) rotate(174.16)"/>
      <path class="cls-1" d="m204.1,246.45h0c5.83-.6,10.79,1.26,11.09,4.14l2.62,25.58c.3,2.88-4.19,5.71-10.02,6.3h0c-5.83.6-10.79-1.26-11.09-4.14l-2.62-25.58c-.3-2.88,4.19-5.71,10.02-6.3h0Z"/>
    </g>
  </g>
</svg>