<?xml version="1.0" encoding="UTF-8"?>
<svg id="Layer_2" data-name="Layer 2" xmlns="http://www.w3.org/2000/svg" viewBox="0 0 127.76 112">
  <defs>
    <style>
      .cls-1 {
        stroke-width: 0px;
      }
    </style>
  </defs>
  <g id="Layer_1-2" data-name="Layer 1">
    <g>
      <path class="cls-1" d="m53.17,111.5c-5.39,0-9.78-4.39-9.78-9.78v-41.88c0-2.94-1.22-5.79-3.36-7.82L3.57,17.38C.6,14.56-.3,10.45,1.22,6.66,2.73,2.86,6.22.5,10.3.5h107.16c4.09,0,7.57,2.36,9.09,6.16,1.52,3.8.62,7.91-2.35,10.72l-36.46,34.64c-2.13,2.03-3.36,4.88-3.36,7.82v41.88c0,5.39-4.39,9.78-9.78,9.78h-21.43Z"/>
      <path class="cls-1" d="m117.46,1c3.88,0,7.18,2.24,8.62,5.84,1.44,3.6.59,7.5-2.23,10.17l-36.46,34.64c-2.23,2.12-3.51,5.1-3.51,8.18v41.88c0,5.12-4.16,9.28-9.28,9.28h-21.43c-5.12,0-9.28-4.16-9.28-9.28v-41.88c0-3.08-1.28-6.06-3.51-8.18L3.91,17.01C1.1,14.34.24,10.44,1.68,6.84,3.12,3.24,6.42,1,10.3,1h107.16m0-1H10.3C1.02,0-3.51,11.34,3.22,17.74l36.46,34.64c2.04,1.94,3.2,4.64,3.2,7.46v41.88c0,5.68,4.6,10.28,10.28,10.28h21.43c5.68,0,10.28-4.6,10.28-10.28v-41.88c0-2.82,1.16-5.51,3.2-7.46l36.46-34.64c6.73-6.4,2.21-17.74-7.08-17.74h0Z"/>
    </g>
  </g>
</svg>