<svg width="274" height="271" viewBox="0 0 274 271" fill="none" xmlns="http://www.w3.org/2000/svg">
<path d="M0.755865 174.851L1.70069 168.213C6.80276 132.561 37.6041 106.769 72.3738 106.769C75.7752 106.769 79.1766 106.959 82.7669 107.528L113.19 111.889V211.831C113.19 234.399 123.772 254.691 140.212 267.776L61.2248 256.208C42.3283 253.363 25.6993 243.502 14.1724 227.951C2.64552 212.4 -2.07862 193.815 0.755865 174.851Z" fill="#0E0D0D"/>
<path d="M210.508 86.2877C210.508 80.4087 215.232 75.478 221.279 75.478H263.229C269.087 75.478 274 80.2191 274 86.2877C274 92.3563 269.276 97.0973 263.229 97.0973H221.279C215.421 97.0973 210.508 92.3563 210.508 86.2877Z" fill="#F8D62D"/>
<path d="M174.037 43.8076C178.195 43.8076 181.407 47.2212 181.407 51.2037C181.407 55.3758 178.006 58.5998 174.037 58.5998C170.069 58.5998 166.668 55.1862 166.668 51.2037C166.668 47.0315 170.069 43.8076 174.037 43.8076Z" fill="#0F2D15"/>
<path d="M125.662 59.1687V212.021C125.662 244.64 152.117 271.19 184.619 271.19C217.121 271.19 243.577 244.64 243.577 212.021V109.614H221.468C208.807 109.614 198.414 99.1833 198.414 86.4773C198.414 73.7712 208.807 63.3408 221.468 63.3408H243.577V59.1687C243.577 26.55 217.121 0 184.619 0C152.117 0 125.662 26.55 125.662 59.1687ZM156.841 51.3933C156.841 41.9111 164.589 33.9461 174.226 33.9461C183.863 33.9461 191.611 41.7215 191.611 51.3933C191.611 60.8754 183.863 68.8405 174.226 68.8405C164.589 68.8405 156.841 61.0651 156.841 51.3933Z" fill="#8DA742"/>
</svg>
