<svg width="206" height="41" viewBox="0 0 206 41" fill="none" xmlns="http://www.w3.org/2000/svg">
<g filter="url(#filter0_d_297_1267)">
<path d="M40.6394 5.97997C42.4175 6.6169 43.3066 7.46613 43.3066 8.52768C43.3066 8.87268 43.1473 9.52288 42.8289 10.4783L35.1857 32.5717C35.1327 32.7575 35.0398 32.9831 34.9071 33.2484C34.7744 33.5138 34.4161 33.8721 33.8323 34.3233C33.275 34.7479 32.5982 34.9602 31.8021 34.9602C31.0324 34.9602 30.3557 34.7479 29.7719 34.3233C29.2145 33.8721 28.843 33.4342 28.6572 33.0096L23.9997 19.2758C21.0539 27.9805 19.5545 32.4125 19.5014 32.5717C19.4483 32.7309 19.3289 32.9565 19.1431 33.2484C18.9574 33.5404 18.745 33.8058 18.5062 34.0446C17.8958 34.655 17.166 34.9602 16.3168 34.9602C15.4675 34.9602 14.7642 34.7612 14.2069 34.3631C13.6762 33.965 13.3179 33.5669 13.1321 33.1688L12.8535 32.5717L5.17051 10.4783C4.87859 9.60249 4.73263 8.9523 4.73263 8.52768C4.73263 7.46613 5.62167 6.63016 7.39976 6.01978C8.16938 5.75439 8.85939 5.6217 9.46978 5.6217C10.1067 5.6217 10.5844 5.834 10.9029 6.25862C11.2479 6.68324 11.5531 7.33344 11.8184 8.20922L16.1973 21.5051L20.5364 8.40826C20.9079 7.29363 21.5847 6.52401 22.5666 6.09939C22.9912 5.91362 23.5353 5.82074 24.1987 5.82074C24.8887 5.82074 25.5257 6.04631 26.1095 6.49747C26.6934 6.92209 27.0649 7.34671 27.2241 7.77133L31.8021 21.5847L36.1809 8.20922C36.3933 7.59883 36.5658 7.14767 36.6984 6.85574C36.8311 6.56382 37.07 6.28516 37.415 6.01978C37.7865 5.72785 38.2377 5.58189 38.7685 5.58189C39.2992 5.58189 39.9229 5.71458 40.6394 5.97997ZM56.3123 16.2504C56.4715 14.7643 57.5198 14.0212 59.4571 14.0212C60.4921 14.0212 61.2617 14.1008 61.766 14.26C62.2702 14.4193 62.6152 14.6979 62.801 15.096C63.0133 15.4941 63.1327 15.8524 63.1593 16.1708C63.2123 16.4627 63.2389 16.9139 63.2389 17.5243V31.4571C63.2389 32.0675 63.2123 32.5319 63.1593 32.8504C63.1327 33.1423 63.0266 33.4873 62.8408 33.8854C62.4693 34.5754 61.5537 34.9204 60.094 34.9204C58.661 34.9204 57.6923 34.7479 57.1881 34.4029C56.7104 34.0313 56.4317 33.5006 56.3521 32.8106C55.3702 34.2171 53.7248 34.9204 51.4159 34.9204C49.1336 34.9204 47.0105 33.8721 45.0466 31.7756C43.0828 29.679 42.1008 27.2507 42.1008 24.4907C42.1008 21.7041 43.0828 19.2758 45.0466 17.2058C47.037 15.1093 49.2132 14.061 51.5751 14.061C52.4774 14.061 53.3001 14.2202 54.0432 14.5387C54.7863 14.8572 55.3038 15.1623 55.5957 15.4543C55.8877 15.7197 56.1265 15.985 56.3123 16.2504ZM49.0672 24.5305C49.0672 25.4063 49.4122 26.2024 50.1022 26.919C50.7922 27.609 51.6282 27.954 52.6101 27.954C53.5921 27.954 54.4015 27.5957 55.0384 26.8792C55.7019 26.1626 56.0336 25.3797 56.0336 24.5305C56.0336 23.6547 55.7152 22.8453 55.0782 22.1022C54.4678 21.3591 53.6319 20.9876 52.5703 20.9876C51.5353 20.9876 50.6861 21.3591 50.0226 22.1022C49.3857 22.8453 49.0672 23.6547 49.0672 24.5305ZM80.4639 5.30323C80.6762 4.90515 81.0345 4.6265 81.5387 4.46726C82.043 4.30803 82.7064 4.22841 83.5291 4.22841C84.3784 4.22841 85.0551 4.30803 85.5594 4.46726C86.0636 4.6265 86.4086 4.90515 86.5944 5.30323C86.8067 5.70131 86.9261 6.05958 86.9526 6.37805C87.0057 6.66997 87.0322 7.12113 87.0322 7.73152V31.4969C87.0322 32.1073 87.0057 32.5717 86.9526 32.8902C86.9261 33.1821 86.8067 33.5138 86.5944 33.8854C86.1963 34.6019 85.0684 34.9602 83.2107 34.9602C81.3795 34.9602 80.3578 34.31 80.1455 33.0096C79.0308 34.2835 77.4783 34.9204 75.4879 34.9204C73.0994 34.9204 70.9233 33.8854 68.9594 31.8154C66.9956 29.7188 66.0136 27.2905 66.0136 24.5305C66.0136 21.7439 66.9956 19.3024 68.9594 17.2058C70.9498 15.1093 73.126 14.061 75.4879 14.061C77.4518 14.061 78.9778 14.7245 80.0658 16.0514V7.69171C80.0658 7.08132 80.0791 6.63016 80.1057 6.33824C80.1587 6.01978 80.2782 5.67477 80.4639 5.30323ZM74.015 26.919C74.705 27.6355 75.541 27.9938 76.5229 27.9938C77.5049 27.9938 78.3143 27.6355 78.9512 26.919C79.6147 26.2024 79.9464 25.4195 79.9464 24.5703C79.9464 23.6945 79.628 22.8851 78.991 22.142C78.3806 21.3989 77.5447 21.0274 76.4831 21.0274C75.4216 21.0274 74.5723 21.3989 73.9354 22.142C73.2985 22.8586 72.98 23.6547 72.98 24.5305C72.98 25.4063 73.325 26.2024 74.015 26.919ZM104.255 5.30323C104.468 4.90515 104.826 4.6265 105.33 4.46726C105.834 4.30803 106.498 4.22841 107.321 4.22841C108.17 4.22841 108.847 4.30803 109.351 4.46726C109.855 4.6265 110.2 4.90515 110.386 5.30323C110.598 5.70131 110.718 6.05958 110.744 6.37805C110.797 6.66997 110.824 7.12113 110.824 7.73152V31.4969C110.824 32.1073 110.797 32.5717 110.744 32.8902C110.718 33.1821 110.598 33.5138 110.386 33.8854C109.988 34.6019 108.86 34.9602 107.002 34.9602C105.171 34.9602 104.149 34.31 103.937 33.0096C102.822 34.2835 101.27 34.9204 99.2794 34.9204C96.8909 34.9204 94.7148 33.8854 92.7509 31.8154C90.787 29.7188 89.8051 27.2905 89.8051 24.5305C89.8051 21.7439 90.787 19.3024 92.7509 17.2058C94.7413 15.1093 96.9175 14.061 99.2794 14.061C101.243 14.061 102.769 14.7245 103.857 16.0514V7.69171C103.857 7.08132 103.871 6.63016 103.897 6.33824C103.95 6.01978 104.07 5.67477 104.255 5.30323ZM97.8065 26.919C98.4965 27.6355 99.3325 27.9938 100.314 27.9938C101.296 27.9938 102.106 27.6355 102.743 26.919C103.406 26.2024 103.738 25.4195 103.738 24.5703C103.738 23.6945 103.419 22.8851 102.783 22.142C102.172 21.3989 101.336 21.0274 100.275 21.0274C99.2131 21.0274 98.3638 21.3989 97.7269 22.142C97.09 22.8586 96.7715 23.6547 96.7715 24.5305C96.7715 25.4063 97.1165 26.2024 97.8065 26.919ZM113.995 7.6519C113.995 7.04151 114.008 6.59036 114.035 6.29843C114.088 5.97997 114.207 5.6217 114.393 5.22362C114.764 4.50707 115.799 4.1488 117.498 4.1488C119.117 4.1488 120.125 4.50707 120.523 5.22362C120.736 5.6217 120.855 5.97997 120.881 6.29843C120.935 6.6169 120.961 7.08132 120.961 7.69171V26.1228C120.961 27.0782 121.041 27.6886 121.2 27.954C121.359 28.1928 121.704 28.3123 122.235 28.3123C122.792 28.3123 123.164 28.3388 123.35 28.3919C123.535 28.4184 123.761 28.5246 124.026 28.7103C124.557 29.0553 124.822 29.9975 124.822 31.5367C124.822 33.2086 124.557 34.2304 124.026 34.6019C123.336 35.0796 121.691 35.1592 119.09 34.8408C117.047 34.5754 115.72 33.8986 115.109 32.8106C114.366 31.5102 113.995 29.4401 113.995 26.6005V7.6519ZM146.852 22.0226C146.852 23.6415 146.44 24.849 145.617 25.6451C144.821 26.4147 143.932 26.7996 142.95 26.7996H133.516C133.516 27.5426 133.954 28.1663 134.83 28.6705C135.705 29.1748 136.581 29.4269 137.457 29.4269C138.996 29.4269 140.204 29.2676 141.079 28.9492L141.517 28.79C142.154 28.498 142.685 28.3521 143.11 28.3521C143.959 28.3521 144.689 28.9492 145.299 30.1434C145.644 30.86 145.817 31.4704 145.817 31.9746C145.817 34.3365 142.99 35.5175 137.337 35.5175C135.374 35.5175 133.622 35.1858 132.083 34.5223C130.57 33.8323 129.389 32.93 128.54 31.8154C126.868 29.6657 126.032 27.264 126.032 24.6101C126.032 21.2662 127.107 18.5991 129.256 16.6087C131.433 14.5918 134.14 13.5833 137.377 13.5833C141.066 13.5833 143.773 14.8837 145.498 17.4845C146.4 18.8645 146.852 20.3772 146.852 22.0226ZM138.452 23.177C139.461 23.177 139.965 22.7524 139.965 21.9032C139.965 21.2928 139.726 20.8018 139.248 20.4303C138.797 20.0587 138.134 19.873 137.258 19.873C136.409 19.873 135.559 20.2312 134.71 20.9478C133.861 21.6378 133.436 22.3809 133.436 23.177H138.452Z" fill="#FEFBF9"/>
<path d="M163.143 5.46246C167.07 5.46246 170.481 6.88228 173.373 9.72192C176.266 12.5616 177.712 16.0912 177.712 20.3108C177.712 24.504 176.332 28.0867 173.572 31.059C170.812 34.0048 167.415 35.4777 163.382 35.4777C159.348 35.4777 155.911 34.0181 153.071 31.0988C150.258 28.1796 148.852 24.703 148.852 20.6691C148.852 18.4664 149.25 16.4097 150.046 14.4989C150.842 12.5616 151.904 10.9427 153.23 9.6423C154.557 8.34191 156.083 7.32017 157.808 6.57709C159.533 5.834 161.311 5.46246 163.143 5.46246ZM155.898 20.4701C155.898 22.832 156.654 24.7561 158.167 26.2422C159.706 27.7019 161.418 28.4317 163.302 28.4317C165.186 28.4317 166.885 27.7151 168.397 26.282C169.91 24.849 170.666 22.9249 170.666 20.5099C170.666 18.0949 169.897 16.1575 168.358 14.6979C166.845 13.2383 165.146 12.5085 163.262 12.5085C161.378 12.5085 159.679 13.2516 158.167 14.7377C156.654 16.1974 155.898 18.1081 155.898 20.4701ZM191.979 14.0212C194.633 14.0212 196.836 15.0429 198.587 17.0864C200.365 19.1033 201.254 21.5714 201.254 24.4907V31.4969C201.254 32.1073 201.228 32.5717 201.175 32.8902C201.148 33.1821 201.042 33.5138 200.856 33.8854C200.485 34.6019 199.45 34.9602 197.751 34.9602C195.867 34.9602 194.779 34.4692 194.487 33.4873C194.328 33.0361 194.248 32.3594 194.248 31.4571V24.4509C194.248 23.3628 193.93 22.5136 193.293 21.9032C192.682 21.2928 191.846 20.9876 190.785 20.9876C189.75 20.9876 188.901 21.306 188.237 21.943C187.6 22.5799 187.282 23.4159 187.282 24.4509V31.4969C187.282 32.1073 187.255 32.5717 187.202 32.8902C187.176 33.1821 187.056 33.5138 186.844 33.8854C186.499 34.6019 185.477 34.9602 183.779 34.9602C182.107 34.9602 181.085 34.6019 180.714 33.8854C180.528 33.4873 180.408 33.1423 180.355 32.8504C180.329 32.5319 180.315 32.0675 180.315 31.4571V17.3651C180.315 16.7812 180.329 16.3433 180.355 16.0514C180.408 15.7329 180.541 15.3879 180.753 15.0164C181.125 14.3529 182.147 14.0212 183.819 14.0212C185.437 14.0212 186.433 14.3264 186.804 14.9368C187.07 15.3879 187.202 15.932 187.202 16.5689C187.308 16.3831 187.547 16.1177 187.919 15.7727C188.29 15.4277 188.649 15.1491 188.994 14.9368C189.896 14.3264 190.891 14.0212 191.979 14.0212Z" fill="#0E0D0D"/>
</g>
<defs>
<filter id="filter0_d_297_1267" x="0.332422" y="0.748804" width="205.322" height="40.1687" filterUnits="userSpaceOnUse" color-interpolation-filters="sRGB">
<feFlood flood-opacity="0" result="BackgroundImageFix"/>
<feColorMatrix in="SourceAlpha" type="matrix" values="0 0 0 0 0 0 0 0 0 0 0 0 0 0 0 0 0 0 127 0" result="hardAlpha"/>
<feOffset dy="1"/>
<feGaussianBlur stdDeviation="2.2"/>
<feComposite in2="hardAlpha" operator="out"/>
<feColorMatrix type="matrix" values="0 0 0 0 0.0541667 0 0 0 0 0.0512326 0 0 0 0 0.0512326 0 0 0 0.25 0"/>
<feBlend mode="normal" in2="BackgroundImageFix" result="effect1_dropShadow_297_1267"/>
<feBlend mode="normal" in="SourceGraphic" in2="effect1_dropShadow_297_1267" result="shape"/>
</filter>
</defs>
</svg>
